<svg width="201" height="42" viewBox="0 0 201 42" fill="none" color="#6C63FF" xmlns="http://www.w3.org/2000/svg">
<path d="M10.872 7.736C15.256 7.736 18.664 8.648 21.096 10.472C23.528 12.296 24.744 15 24.744 18.584C24.744 22.328 23.544 25.16 21.144 27.08C18.776 28.968 15.592 29.912 11.592 29.912H7.992V41H0.12V7.736H10.872ZM10.92 24.248C12.776 24.248 14.184 23.816 15.144 22.952C16.136 22.056 16.632 20.6 16.632 18.584C16.632 15.096 14.68 13.352 10.776 13.352H7.992V24.248H10.92ZM38.3441 14.696C42.2481 14.696 45.3041 15.896 47.5121 18.296C49.7201 20.664 50.8241 23.992 50.8241 28.28C50.8241 31 50.3121 33.384 49.2881 35.432C48.2961 37.448 46.8561 39.016 44.9681 40.136C43.1121 41.256 40.9041 41.816 38.3441 41.816C34.4721 41.816 31.4161 40.632 29.1761 38.264C26.9681 35.864 25.8641 32.52 25.8641 28.232C25.8641 25.512 26.3601 23.144 27.3521 21.128C28.3761 19.08 29.8161 17.496 31.6721 16.376C33.5601 15.256 35.7841 14.696 38.3441 14.696ZM38.3441 20.264C36.8081 20.264 35.6561 20.92 34.8881 22.232C34.1201 23.512 33.7361 25.512 33.7361 28.232C33.7361 31.016 34.1041 33.048 34.8401 34.328C35.6081 35.608 36.7761 36.248 38.3441 36.248C39.8801 36.248 41.0321 35.608 41.8001 34.328C42.5681 33.016 42.9521 31 42.9521 28.28C42.9521 25.496 42.5681 23.464 41.8001 22.184C41.0641 20.904 39.9121 20.264 38.3441 20.264ZM69.1594 14.792C70.0874 14.792 70.9354 14.904 71.7034 15.128L70.5034 22.472C69.5434 22.248 68.7754 22.136 68.1994 22.136C66.6954 22.136 65.5434 22.664 64.7434 23.72C63.9754 24.744 63.3674 26.296 62.9194 28.376V41H55.3354V15.512H61.9594L62.5834 20.456C63.1594 18.696 64.0234 17.32 65.1754 16.328C66.3594 15.304 67.6874 14.792 69.1594 14.792ZM90.585 39.8C89.657 40.44 88.569 40.936 87.321 41.288C86.105 41.64 84.889 41.816 83.673 41.816C78.105 41.784 75.321 38.712 75.321 32.6V20.792H71.721V15.512H75.321V9.992L82.905 9.128V15.512H88.761L87.945 20.792H82.905V32.504C82.905 33.688 83.097 34.536 83.481 35.048C83.865 35.56 84.473 35.816 85.305 35.816C86.169 35.816 87.081 35.544 88.041 35L90.585 39.8ZM104.781 10.184C103.693 10.184 102.909 10.44 102.429 10.952C101.949 11.464 101.709 12.328 101.709 13.544V15.512H107.709L106.893 20.792H101.709V41H94.1246V20.792H90.2846V15.512H94.1246V13.256C94.1246 10.696 94.9566 8.616 96.6206 7.016C98.3166 5.384 100.733 4.568 103.869 4.568C106.397 4.568 108.717 5.112 110.829 6.2L108.765 11.144C107.485 10.504 106.157 10.184 104.781 10.184ZM120.797 14.696C124.701 14.696 127.757 15.896 129.965 18.296C132.173 20.664 133.277 23.992 133.277 28.28C133.277 31 132.765 33.384 131.741 35.432C130.749 37.448 129.309 39.016 127.421 40.136C125.565 41.256 123.357 41.816 120.797 41.816C116.925 41.816 113.869 40.632 111.629 38.264C109.421 35.864 108.317 32.52 108.317 28.232C108.317 25.512 108.813 23.144 109.805 21.128C110.829 19.08 112.269 17.496 114.125 16.376C116.013 15.256 118.237 14.696 120.797 14.696ZM120.797 20.264C119.261 20.264 118.109 20.92 117.341 22.232C116.573 23.512 116.189 25.512 116.189 28.232C116.189 31.016 116.557 33.048 117.293 34.328C118.061 35.608 119.229 36.248 120.797 36.248C122.333 36.248 123.485 35.608 124.253 34.328C125.021 33.016 125.405 31 125.405 28.28C125.405 25.496 125.021 23.464 124.253 22.184C123.517 20.904 122.365 20.264 120.797 20.264ZM124.253 0.919998L127.229 6.584L115.901 11.144L113.789 7.256L124.253 0.919998ZM144.557 41.816C142.349 41.816 140.621 41.192 139.373 39.944C138.157 38.664 137.549 36.856 137.549 34.52V5.384L145.133 4.568V34.232C145.133 35.288 145.565 35.816 146.429 35.816C146.877 35.816 147.293 35.736 147.677 35.576L149.165 40.952C147.789 41.528 146.253 41.816 144.557 41.816ZM159.623 15.512V41H152.039V15.512H159.623ZM155.783 2.072C157.095 2.072 158.167 2.488 158.999 3.32C159.863 4.12 160.295 5.144 160.295 6.392C160.295 7.64 159.863 8.68 158.999 9.512C158.167 10.312 157.095 10.712 155.783 10.712C154.471 10.712 153.399 10.312 152.567 9.512C151.735 8.68 151.319 7.64 151.319 6.392C151.319 5.144 151.735 4.12 152.567 3.32C153.399 2.488 154.471 2.072 155.783 2.072ZM176.625 14.696C180.529 14.696 183.585 15.896 185.793 18.296C188.001 20.664 189.105 23.992 189.105 28.28C189.105 31 188.593 33.384 187.569 35.432C186.577 37.448 185.137 39.016 183.249 40.136C181.393 41.256 179.185 41.816 176.625 41.816C172.753 41.816 169.697 40.632 167.457 38.264C165.249 35.864 164.145 32.52 164.145 28.232C164.145 25.512 164.641 23.144 165.633 21.128C166.657 19.08 168.097 17.496 169.953 16.376C171.841 15.256 174.065 14.696 176.625 14.696ZM176.625 20.264C175.089 20.264 173.937 20.92 173.169 22.232C172.401 23.512 172.017 25.512 172.017 28.232C172.017 31.016 172.385 33.048 173.121 34.328C173.889 35.608 175.057 36.248 176.625 36.248C178.161 36.248 179.313 35.608 180.081 34.328C180.849 33.016 181.233 31 181.233 28.28C181.233 25.496 180.849 23.464 180.081 22.184C179.345 20.904 178.193 20.264 176.625 20.264Z" fill="#141414"/>
<path d="M196.401 33.128C197.585 33.128 198.593 33.56 199.425 34.424C200.289 35.256 200.721 36.264 200.721 37.448C200.721 38.664 200.289 39.704 199.425 40.568C198.593 41.4 197.585 41.816 196.401 41.816C195.185 41.816 194.145 41.4 193.281 40.568C192.449 39.704 192.033 38.664 192.033 37.448C192.033 36.264 192.449 35.256 193.281 34.424C194.145 33.56 195.185 33.128 196.401 33.128Z" fill="#C883EA"/>
</svg>
